<?xml version="1.0" encoding="utf-8"?>
<!-- Generator: Adobe Illustrator 24.3.0, SVG Export Plug-In . SVG Version: 6.00 Build 0)  -->
<svg version="1.1" id="Layer_1" xmlns="http://www.w3.org/2000/svg" xmlns:xlink="http://www.w3.org/1999/xlink" x="0px" y="0px"
	 viewBox="0 0 618.34 157.4" style="enable-background:new 0 0 618.34 157.4;" xml:space="preserve">
<style type="text/css">
	.st0{enable-background:new    ;}
	.st1{fill:#005CA9;}
	.st2{fill:#878787;}
	.st3{fill-rule:evenodd;clip-rule:evenodd;fill:#005CA9;}
	.st4{fill:#7C7C7B;}
</style>
<g>
	<g class="st0">
		<path class="st1" d="M179.98,44.59V1.85h20.45c6.4,0,10.97,0.96,13.71,2.87c2.74,1.92,4.1,5.06,4.1,9.44
			c0,2.61-0.56,4.78-1.68,6.5c-1.12,1.72-2.85,3.08-5.19,4.09c2.38,0.5,4.12,1.49,5.19,2.97c1.09,1.48,1.66,3.66,1.74,6.51
			l0.23,5.95c0,0.04,0.01,0.09,0.03,0.14c0.06,1.71,0.46,2.6,1.22,2.67v1.59h-13.84c-0.26-1.02-0.44-1.92-0.56-2.68
			c-0.13-0.76-0.19-1.36-0.19-1.78v-4.26c0-2.21-0.43-3.76-1.31-4.66c-0.87-0.9-2.38-1.35-4.53-1.35h-5.84v14.74
			C193.52,44.59,179.98,44.59,179.98,44.59z M193.53,20.21h6.24c2.18,0,3.7-0.3,4.53-0.89c0.83-0.59,1.25-1.62,1.25-3.08
			c0-1.51-0.42-2.55-1.25-3.16c-0.83-0.59-2.45-0.89-4.88-0.89h-5.89L193.53,20.21L193.53,20.21z"/>
		<path class="st1" d="M221.13,44.59l15.03-42.74h13.9l15.03,42.74h-13.61l-1.59-5.67h-13.61l-1.65,5.67H221.13z M238.77,29.96h8.62
			l-4.26-14.8L238.77,29.96z"/>
		<path class="st1" d="M281.42,44.59H269V1.85h16.71l5.92,21.33c0.07,0.29,0.23,0.96,0.46,1.99s0.56,2.47,0.99,4.27
			c0.27-1.43,0.52-2.68,0.76-3.76c0.23-1.08,0.43-1.88,0.6-2.42l6.07-21.41h16.68v42.74h-12.42l0.11-21.04c0-1.28,0-2.52,0.01-3.73
			c0.01-1.2,0.03-2.47,0.04-3.76c-0.46,2.21-1.03,4.62-1.68,7.23l-0.09,0.37l-5.28,20.93h-9.58l-5.34-20.45
			c-0.26-0.93-0.5-1.99-0.76-3.2c-0.26-1.2-0.57-2.83-0.99-4.88c0.06,1.84,0.1,3.41,0.13,4.73c0.03,1.32,0.04,2.37,0.04,3.17v20.63
			H281.42z"/>
		<path class="st1" d="M325.26,44.59V1.85h13.61v14.16l12.31-14.16h15.93L351.85,17.6l17.24,26.98h-16.37l-10.44-17.13l-3.4,3.51
			v13.61h-13.63V44.59z"/>
		<path class="st1" d="M371.6,44.59V1.85h20.45c6.4,0,10.97,0.96,13.71,2.87c2.74,1.92,4.1,5.06,4.1,9.44c0,2.61-0.56,4.78-1.68,6.5
			c-1.12,1.72-2.85,3.08-5.19,4.09c2.38,0.5,4.12,1.49,5.19,2.97c1.08,1.48,1.66,3.66,1.74,6.51l0.23,5.95
			c0,0.04,0.01,0.09,0.03,0.14c0.06,1.71,0.46,2.6,1.22,2.67v1.59h-13.84c-0.26-1.02-0.44-1.92-0.56-2.68
			c-0.13-0.76-0.19-1.36-0.19-1.78v-4.26c0-2.21-0.43-3.76-1.31-4.66c-0.87-0.9-2.38-1.35-4.53-1.35h-5.84v14.74
			C385.14,44.59,371.6,44.59,371.6,44.59z M385.15,20.21h6.24c2.18,0,3.7-0.3,4.53-0.89c0.83-0.59,1.25-1.62,1.25-3.08
			c0-1.51-0.42-2.55-1.25-3.16c-0.83-0.59-2.45-0.89-4.88-0.89h-5.89L385.15,20.21L385.15,20.21z"/>
		<path class="st1" d="M417.19,44.59V1.85h13.98v42.74H417.19z"/>
		<path class="st1" d="M437.53,31.27h13.35c0.37,1.55,1.03,2.65,2.01,3.34c0.96,0.67,2.41,1.02,4.32,1.02
			c1.61,0,2.87-0.27,3.79-0.83c0.92-0.55,1.38-1.31,1.38-2.28c0-1.55-1.92-2.81-5.78-3.77c-0.77-0.19-1.36-0.34-1.76-0.43
			c-3.16-0.82-5.67-1.55-7.53-2.22c-1.86-0.66-3.23-1.29-4.07-1.86c-1.65-1.18-2.88-2.6-3.7-4.23c-0.82-1.65-1.23-3.51-1.23-5.62
			c0-4.23,1.59-7.56,4.79-9.98s7.59-3.63,13.18-3.63c5.49,0,9.81,1.16,12.97,3.47c3.16,2.31,4.93,5.62,5.34,9.94h-13.02
			c-0.22-1.26-0.77-2.19-1.66-2.81c-0.89-0.62-2.18-0.93-3.84-0.93c-1.48,0-2.57,0.24-3.28,0.73c-0.72,0.49-1.08,1.22-1.08,2.21
			c0,1.42,1.88,2.6,5.62,3.54c0.33,0.1,0.59,0.16,0.76,0.2c0.55,0.13,1.36,0.34,2.47,0.6c4.98,1.26,8.22,2.4,9.75,3.43
			c1.89,1.26,3.28,2.7,4.15,4.29c0.87,1.61,1.31,3.5,1.31,5.69c0,4.72-1.65,8.35-4.95,10.89c-3.3,2.54-8.02,3.8-14.17,3.8
			c-5.67,0-10.15-1.26-13.48-3.8C439.8,39.44,437.93,35.87,437.53,31.27z"/>
		<path class="st1" d="M481.9,44.59V1.85h13.73v14.52h12.79V1.85h13.73v42.74h-13.73V28.01h-12.79v16.57H481.9V44.59z"/>
		<path class="st1" d="M530.22,44.59V1.85h13.02l11.99,19.88c0.37,0.56,0.76,1.35,1.18,2.38c0.42,1.02,0.86,2.27,1.32,3.71
			c-0.11-0.76-0.2-1.59-0.26-2.5c-0.06-0.9-0.09-2.01-0.09-3.31V1.85h13.08v42.74h-13.08l-11.99-19.74
			c-0.37-0.59-0.77-1.41-1.2-2.47c-0.43-1.06-0.87-2.28-1.32-3.66c0.13,0.76,0.23,1.55,0.29,2.37c0.06,0.82,0.09,1.98,0.09,3.47
			v20.02H530.22z"/>
		<path class="st1" d="M574.38,44.59l15.03-42.74h13.9l15.03,42.74h-13.61l-1.59-5.67h-13.61l-1.65,5.67H574.38z M592.02,29.96h8.62
			l-4.26-14.8L592.02,29.96z"/>
	</g>
	<g class="st0">
		<path class="st1" d="M179.98,99.83V57.09h32.33v10.76h-18.6v6.61h14.8v10.33h-14.8v15.03h-13.73V99.83z"/>
		<path class="st1" d="M215.69,78.5c0-6.97,1.99-12.46,5.97-16.48c3.97-4.02,9.39-6.04,16.26-6.04c6.84,0,12.25,2.01,16.22,6.04
			c3.96,4.03,5.95,9.52,5.95,16.48c0,6.94-1.98,12.44-5.95,16.47c-3.97,4.03-9.37,6.05-16.22,6.05c-6.87,0-12.29-2.02-16.26-6.05
			C217.68,90.92,215.69,85.44,215.69,78.5z M229.53,78.5c0,4.04,0.67,7.01,2.04,8.91c1.35,1.89,3.47,2.84,6.35,2.84
			c2.87,0,4.96-0.95,6.3-2.83c1.33-1.89,2.01-4.86,2.01-8.92c0-4.09-0.67-7.07-2.01-8.95c-1.33-1.88-3.43-2.83-6.3-2.83
			c-2.88,0-5.01,0.95-6.35,2.84C230.2,71.46,229.53,74.43,229.53,78.5z"/>
		<path class="st1" d="M266.36,99.83V57.09h20.45c6.4,0,10.97,0.96,13.71,2.87c2.74,1.92,4.1,5.06,4.1,9.44
			c0,2.61-0.56,4.78-1.68,6.5c-1.12,1.72-2.85,3.08-5.19,4.09c2.38,0.5,4.12,1.49,5.19,2.97c1.09,1.48,1.66,3.66,1.74,6.51
			l0.23,5.95c0,0.04,0.01,0.09,0.03,0.14c0.06,1.71,0.46,2.6,1.22,2.67v1.59h-13.84c-0.26-1.02-0.44-1.92-0.56-2.68
			c-0.13-0.76-0.19-1.36-0.19-1.78v-4.26c0-2.21-0.43-3.76-1.31-4.66c-0.87-0.9-2.38-1.35-4.53-1.35h-5.84v14.74H266.36z
			 M279.9,75.44h6.24c2.18,0,3.7-0.3,4.53-0.89c0.83-0.59,1.25-1.62,1.25-3.08c0-1.51-0.42-2.55-1.25-3.16
			c-0.83-0.59-2.45-0.89-4.88-0.89h-5.89L279.9,75.44L279.9,75.44z"/>
		<path class="st1" d="M343.51,99.83l-0.67-3.69c-1.55,1.65-3.41,2.87-5.59,3.67c-2.18,0.8-4.73,1.2-7.63,1.2
			c-6.11,0-10.93-2.01-14.44-6.02c-3.53-4.02-5.28-9.51-5.28-16.49c0-7.14,1.96-12.68,5.89-16.61c3.93-3.93,9.44-5.91,16.51-5.91
			c5.57,0,10.07,1.38,13.48,4.15c3.41,2.77,5.44,6.67,6.08,11.69h-13.02c-0.52-1.71-1.38-3-2.54-3.89
			c-1.18-0.89-2.61-1.33-4.33-1.33c-2.75,0-4.8,1.05-6.17,3.17c-1.36,2.11-2.05,5.25-2.05,9.44c0,3.87,0.69,6.76,2.07,8.68
			c1.38,1.91,3.46,2.87,6.27,2.87c2.01,0,3.71-0.47,5.12-1.41c1.41-0.93,2.27-2.19,2.6-3.79h-6.18v-9.15h18.77v23.42H343.51z"/>
		<path class="st1" d="M360.37,99.83V57.09h13.98v42.74C374.35,99.83,360.37,99.83,360.37,99.83z"/>
		<path class="st1" d="M382.71,99.83V57.09h13.02l11.99,19.88c0.37,0.56,0.76,1.35,1.18,2.38c0.42,1.02,0.86,2.27,1.32,3.71
			c-0.11-0.76-0.2-1.59-0.26-2.5c-0.06-0.9-0.09-2.01-0.09-3.31V57.09h13.08v42.74h-13.08l-11.99-19.74
			c-0.37-0.59-0.77-1.41-1.2-2.47s-0.87-2.28-1.32-3.66c0.13,0.76,0.23,1.55,0.29,2.37c0.06,0.82,0.09,1.98,0.09,3.47v20.02
			L382.71,99.83L382.71,99.83z"/>
		<path class="st1" d="M462.89,99.83l-0.67-3.69c-1.55,1.65-3.41,2.87-5.59,3.67c-2.18,0.8-4.73,1.2-7.63,1.2
			c-6.11,0-10.93-2.01-14.44-6.02c-3.53-4.02-5.28-9.51-5.28-16.49c0-7.14,1.96-12.68,5.89-16.61c3.93-3.93,9.44-5.91,16.51-5.91
			c5.57,0,10.07,1.38,13.48,4.15c3.41,2.77,5.44,6.67,6.08,11.69h-13.02c-0.52-1.71-1.38-3-2.54-3.89
			c-1.18-0.89-2.61-1.33-4.33-1.33c-2.75,0-4.8,1.05-6.17,3.17c-1.36,2.11-2.05,5.25-2.05,9.44c0,3.87,0.69,6.76,2.07,8.68
			c1.38,1.91,3.46,2.87,6.27,2.87c2.01,0,3.71-0.47,5.12-1.41c1.41-0.93,2.27-2.19,2.6-3.79h-6.18v-9.15h18.77v23.42H462.89z"/>
		<path class="st1" d="M477.52,86.5h13.35c0.37,1.55,1.03,2.65,2.01,3.34c0.96,0.67,2.41,1.02,4.32,1.02c1.61,0,2.87-0.27,3.79-0.83
			c0.92-0.55,1.38-1.31,1.38-2.28c0-1.55-1.92-2.81-5.78-3.77c-0.77-0.19-1.36-0.34-1.76-0.43c-3.16-0.82-5.67-1.55-7.53-2.22
			c-1.86-0.66-3.23-1.29-4.07-1.86c-1.65-1.18-2.88-2.6-3.7-4.23c-0.82-1.65-1.23-3.51-1.23-5.62c0-4.23,1.59-7.56,4.79-9.98
			c3.2-2.42,7.59-3.63,13.17-3.63c5.49,0,9.81,1.16,12.97,3.47s4.93,5.62,5.34,9.94h-13.02c-0.22-1.26-0.77-2.19-1.66-2.81
			c-0.9-0.62-2.18-0.93-3.84-0.93c-1.46,0-2.57,0.24-3.28,0.73c-0.72,0.49-1.08,1.22-1.08,2.21c0,1.42,1.88,2.6,5.62,3.54
			c0.33,0.1,0.57,0.16,0.76,0.2c0.55,0.13,1.36,0.34,2.47,0.6c4.98,1.26,8.22,2.4,9.75,3.43c1.89,1.26,3.28,2.7,4.15,4.29
			c0.87,1.61,1.31,3.5,1.31,5.69c0,4.72-1.65,8.35-4.95,10.89c-3.3,2.54-8.02,3.8-14.17,3.8c-5.67,0-10.15-1.26-13.48-3.8
			C479.79,94.68,477.92,91.11,477.52,86.5z"/>
	</g>
	<g class="st0">
		<path class="st1" d="M179.98,155.06v-42.74h13.73v31.4h18.66v11.35H179.98z"/>
		<path class="st1" d="M218.19,155.06v-42.74h13.98v42.74H218.19z"/>
		<path class="st1" d="M252.95,155.06h-12.42v-42.74h16.71l5.92,21.33c0.07,0.29,0.23,0.96,0.46,1.99s0.56,2.47,0.99,4.27
			c0.27-1.43,0.52-2.68,0.76-3.76c0.23-1.08,0.43-1.88,0.6-2.42l6.07-21.41h16.68v42.74H276.3l0.11-21.04c0-1.28,0-2.52,0.01-3.73
			c0.01-1.2,0.03-2.47,0.04-3.76c-0.46,2.21-1.03,4.62-1.68,7.23l-0.09,0.37l-5.28,20.93h-9.58l-5.34-20.45
			c-0.26-0.93-0.5-1.99-0.76-3.2c-0.26-1.2-0.57-2.83-0.99-4.88c0.06,1.84,0.1,3.41,0.13,4.73c0.03,1.32,0.04,2.37,0.04,3.17v20.63
			H252.95z"/>
		<path class="st1" d="M297.03,155.06v-42.74h13.98v42.74H297.03z"/>
		<path class="st1" d="M328.37,155.06v-31.48h-12.31v-11.26h38.34v11.26h-12.31v31.48H328.37z"/>
		<path class="st1" d="M358.83,155.06v-42.74h34.15v10.24h-20.42v5.69h17.27v9.81h-17.27v6.61h21.27v10.38H358.83z"/>
		<path class="st1" d="M400.24,155.06v-42.74h16.59c4.22,0,7.36,0.19,9.41,0.56c2.07,0.37,3.86,1,5.38,1.88
			c2.95,1.74,5.18,4.19,6.67,7.34c1.49,3.16,2.24,7.03,2.24,11.63c0,4.83-0.92,8.91-2.77,12.21c-1.85,3.3-4.58,5.75-8.18,7.36
			c-1.39,0.65-3.14,1.09-5.24,1.36s-5.46,0.4-10.08,0.4H400.24z M413.97,144.23h3.69c3.43,0,5.79-0.76,7.13-2.29
			c1.32-1.53,1.99-4.26,1.99-8.22c0-3.84-0.67-6.57-2.04-8.19c-1.35-1.61-3.66-2.41-6.91-2.41h-3.86V144.23z"/>
	</g>
	<g>
		<path class="st2" d="M0,157.4V0.98V0h157.4v157.4L0,157.4L0,157.4z M1.94,155.45h153.51V1.94H1.95L1.94,155.45L1.94,155.45z"/>
		<path class="st2" d="M7.77,149.63V8.75V7.77h141.85v141.85H7.77L7.77,149.63z M9.71,147.68h137.97V9.71H9.71V147.68L9.71,147.68z"
			/>
		<polygon class="st2" points="8.71,27.21 8.71,25.26 148.65,25.26 148.65,27.21 		"/>
		<polygon class="st2" points="8.72,44.69 8.72,42.76 148.65,42.76 148.65,44.69 		"/>
		<polygon class="st2" points="8.71,62.19 8.71,60.24 148.65,60.24 148.65,62.19 		"/>
		<polygon class="st2" points="8.71,79.68 8.71,77.72 148.65,77.72 148.65,79.68 		"/>
		<polygon class="st2" points="8.71,97.16 8.71,95.21 148.65,95.21 148.65,97.16 		"/>
		<polygon class="st2" points="8.71,114.64 8.71,112.71 148.65,112.71 148.65,114.64 		"/>
		<polygon class="st2" points="8.71,132.13 8.71,130.19 148.65,130.19 148.65,132.13 		"/>
		<polygon class="st2" points="25.96,147.96 25.96,9.44 27.9,9.44 27.9,147.96 		"/>
		<polygon class="st2" points="43.44,147.96 43.44,9.44 45.4,9.44 45.4,147.96 		"/>
		<polygon class="st2" points="60.94,147.96 60.94,9.44 62.88,9.44 62.88,147.96 		"/>
		<polygon class="st2" points="78.43,147.96 78.43,9.44 80.36,9.44 80.36,147.96 		"/>
		<polygon class="st2" points="95.91,147.96 95.91,9.44 97.86,9.44 97.86,147.96 		"/>
		<polygon class="st2" points="113.4,147.96 113.4,9.44 115.35,9.44 115.35,147.96 		"/>
		<polygon class="st2" points="130.89,147.96 130.89,9.44 132.83,9.44 132.83,147.96 		"/>
		<rect x="96.93" y="8.85" class="st3" width="17.17" height="16.64"/>
		<path class="st4" d="M95.97,26.48V8.85V7.89h19.1v18.59H95.97L95.97,26.48z M97.91,24.53h15.23V9.81H97.91V24.53L97.91,24.53z"/>
		<rect x="131.44" y="8.85" class="st3" width="17.17" height="16.64"/>
		<path class="st4" d="M130.46,26.48V8.85V7.89h19.1v18.59H130.46L130.46,26.48z M132.4,24.53h15.23V9.81H132.4V24.53L132.4,24.53z"
			/>
		<rect x="96.93" y="43.63" class="st3" width="17.17" height="16.64"/>
		<path class="st4" d="M95.95,61.24V43.63v-0.98h19.12v18.59H95.95L95.95,61.24z M97.91,59.29h15.23v-14.7H97.91V59.29L97.91,59.29z
			"/>
		<rect x="131.44" y="43.63" class="st3" width="17.17" height="16.64"/>
		<path class="st4" d="M130.46,61.24V43.63v-0.98h19.1v18.59H130.46L130.46,61.24z M132.4,59.29h15.23v-14.7H132.4V59.29
			L132.4,59.29z"/>
		<polygon class="st3" points="61.9,131.02 68.04,131.02 68.04,112.32 71.96,106.63 81.45,131.02 90.38,131.02 76.42,100.52 
			88.71,78.57 79.4,78.37 67.48,102.15 67.48,78.37 61.9,78.37 		"/>
		<path class="st4" d="M80.78,131.98l-9.06-23.31l-2.7,3.93v19.38H61.9h-0.98V77.39h7.53l-0.01,20.65L78.8,77.38l11.55,0.24
			l-12.84,22.93l14.39,31.43H80.78L80.78,131.98z M82.11,130.05h6.76l-13.54-29.58L87.06,79.5l-7.07-0.16l-11.65,23.24l-1.85-0.43
			V79.35h-3.64v50.72h4.2v-18.03l5.12-7.46L82.11,130.05L82.11,130.05z"/>
		<polygon class="st3" points="96.99,131.02 104.62,131.02 104.62,113.7 114.34,113.7 114.34,105.06 103.31,105.06 103.31,86.34 
			122.9,86.34 122.9,78.7 96.99,78.7 		"/>
		<path class="st4" d="M96.99,131.98h-0.98V77.71h27.87v9.6h-19.61v16.78h11.03v10.57l-9.72-0.01v17.33L96.99,131.98L96.99,131.98z
			 M103.64,130.05v-17.33h9.72v-6.68h-11.03V85.38h19.59v-5.71H97.95v50.39L103.64,130.05L103.64,130.05z"/>
		<polygon class="st3" points="131.9,78.7 138.41,78.7 138.41,124.32 148.65,124.32 148.65,131.02 131.9,131.02 		"/>
		<path class="st4" d="M130.92,131.98V78.7v-0.96h8.46v45.61h10.26V132h-18.72V131.98z M132.87,130.05h14.82v-4.76h-10.24V79.66
			h-4.56v50.39H132.87z"/>
		<path class="st3" d="M27.05,131.02h7.64v-27.84h7.1c4.12,0,7.95,1.08,7.95,7.76s-0.9,20.07,1.82,20.07h8.56
			c0,0-2.73-2.87-2.73-8.22v-17.2c0-3.94-2.01-7.57-6.01-7.57c4.19-2.29,6.74-5.81,6.74-17.01s-1.89-19.99-12.92-19.99H27.05V131.02
			z M34.7,91.91h10.5c3.28,0,5.82-4.39,5.82-10.13c0-5.74-0.62-9.94-6.55-9.94H34.7V91.91z"/>
		<path class="st4" d="M51.56,131.98c-1.96-0.26-2.21-2.05-2.55-3.92l0,0c-0.3-1.96-0.37-4.53-0.37-7.2l0,0
			c0-3.54,0.14-7.3,0.14-9.94l0,0c-0.16-6.2-2.94-6.6-6.97-6.78l0,0h-6.12v27.83h-8.62h-0.98V60.05h19.12
			c11.82,0.03,13.88,9.84,13.9,20.98l0,0c0.06,9.44-1.89,13.9-5.18,16.51l0,0c3,1.25,4.45,4.7,4.45,8.06l0,0v17.2
			c0,4.99,2.47,7.54,2.47,7.54l0,0l1.56,1.64H51.56L51.56,131.98z M58.25,130.05c-0.85-1.48-1.84-3.92-1.84-7.24l0,0v-17.2
			c-0.06-3.69-1.76-6.6-5.03-6.6l0,0l-0.47-1.82c3.86-2.18,6.17-5.02,6.24-16.15l0,0C57.01,69.76,55.42,62.02,45.19,62l0,0H28.01
			v68.06h5.69v-27.83h8.08c2.14,0,4.33,0.24,6.1,1.56l0,0c1.78,1.32,2.83,3.66,2.81,7.16l0,0c0,2.71-0.14,6.44-0.14,9.94l0,0
			c-0.11,4.43,0.47,8.82,1.03,9.17l0,0L58.25,130.05L58.25,130.05z M34.7,92.87h-0.98v-22h10.73c3.17-0.04,5.34,1.25,6.37,3.36l0,0
			c1.02,2.07,1.15,4.66,1.16,7.57l0,0c-0.03,5.92-2.55,10.94-6.8,11.09l0,0L34.7,92.87L34.7,92.87z M45.19,90.93
			c2.29-0.01,4.85-3.63,4.85-9.15l0,0c-0.16-5.87-0.39-8.91-5.58-8.98l0,0l-8.79-0.01v18.14H45.19L45.19,90.93z"/>
	</g>
</g>
</svg>
